<svg xmlns="http://www.w3.org/2000/svg" viewBox="0 0 900 900" width="900" height="900" role="img" aria-label="Alfajor Peruano"><defs><linearGradient id="bg" x1="0" y1="0" x2="0" y2="1"><stop offset="0" stop-color="#FBF7F0"/><stop offset="1" stop-color="#EDE3D2"/></linearGradient><linearGradient id="accent" x1="0" y1="0" x2="1" y2="1"><stop offset="0" stop-color="#C6733A"/><stop offset="1" stop-color="#8F4A2C"/></linearGradient></defs><rect width="900" height="900" fill="url(#bg)"/><rect x="14" y="14" width="872" height="872" fill="none" stroke="#2E2016" stroke-opacity="0.12" stroke-width="2" rx="10"/><path d="M0 306 Q252 144 558 270" fill="none" stroke="#D8A44A" stroke-opacity="0.35" stroke-width="3"/><circle cx="450" cy="396" r="153" fill="#F6EFE4" stroke="url(#accent)" stroke-width="2.5"/><g fill="none" stroke="#8F4A2C" stroke-width="9.8181818181818" stroke-linecap="round"><path d="M450 584.18181818182 V232.36363636364"/><path d="M450 256.90909090909 q-24.545454545455 -16.363636363636 -24.545454545455 36.818181818182"/><path d="M450 256.90909090909 q24.545454545455 -16.363636363636 24.545454545455 36.818181818182"/><path d="M450 310.09090909091 q-31.090909090909 -16.363636363636 -31.090909090909 36.818181818182"/><path d="M450 310.09090909091 q31.090909090909 -16.363636363636 31.090909090909 36.818181818182"/><path d="M450 363.27272727273 q-37.636363636364 -16.363636363636 -37.636363636364 36.818181818182"/><path d="M450 363.27272727273 q37.636363636364 -16.363636363636 37.636363636364 36.818181818182"/><path d="M450 416.45454545455 q-44.181818181818 -16.363636363636 -44.181818181818 36.818181818182"/><path d="M450 416.45454545455 q44.181818181818 -16.363636363636 44.181818181818 36.818181818182"/><path d="M450 469.63636363636 q-50.727272727273 -16.363636363636 -50.727272727273 36.818181818182"/><path d="M450 469.63636363636 q50.727272727273 -16.363636363636 50.727272727273 36.818181818182"/><path d="M450 522.81818181818 q-57.272727272727 -16.363636363636 -57.272727272727 36.818181818182"/><path d="M450 522.81818181818 q57.272727272727 -16.363636363636 57.272727272727 36.818181818182"/><path d="M450 232.36363636364 q-5 -10 0 -18 q5 8 0 18"/></g><text x="450" y="592" text-anchor="middle" font-family="Georgia, 'Times New Roman', serif" font-size="25" letter-spacing="7" fill="#8F4A2C">DULCES</text><text x="450" y="645" text-anchor="middle" font-family="Georgia, 'Times New Roman', serif" font-style="italic" font-size="47" fill="#2E2016">Alfajor Peruano</text><text x="450" y="874" text-anchor="middle" font-family="system-ui, sans-serif" font-size="20" letter-spacing="1" fill="#9A8E7C">Pacífica Panadería · imagen de ejemplo — reemplazar</text></svg>