<svg xmlns="http://www.w3.org/2000/svg" viewBox="0 0 1600 1000" width="1600" height="1000" role="img" aria-label="Nuestro pan recién horneado"><defs><linearGradient id="bg" x1="0" y1="0" x2="0" y2="1"><stop offset="0" stop-color="#FBF7F0"/><stop offset="1" stop-color="#EDE3D2"/></linearGradient><linearGradient id="accent" x1="0" y1="0" x2="1" y2="1"><stop offset="0" stop-color="#C6733A"/><stop offset="1" stop-color="#8F4A2C"/></linearGradient></defs><rect width="1600" height="1000" fill="url(#bg)"/><rect x="14" y="14" width="1572" height="972" fill="none" stroke="#2E2016" stroke-opacity="0.12" stroke-width="2" rx="10"/><path d="M0 340 Q448 160 992 300" fill="none" stroke="#D8A44A" stroke-opacity="0.35" stroke-width="3"/><circle cx="800" cy="440" r="170" fill="#F6EFE4" stroke="url(#accent)" stroke-width="2.5"/><g fill="none" stroke="#8F4A2C" stroke-width="10.909090909091" stroke-linecap="round"><path d="M800 649.09090909091 V258.18181818182"/><path d="M800 285.45454545455 q-27.272727272727 -18.181818181818 -27.272727272727 40.909090909091"/><path d="M800 285.45454545455 q27.272727272727 -18.181818181818 27.272727272727 40.909090909091"/><path d="M800 344.54545454545 q-34.545454545455 -18.181818181818 -34.545454545455 40.909090909091"/><path d="M800 344.54545454545 q34.545454545455 -18.181818181818 34.545454545455 40.909090909091"/><path d="M800 403.63636363636 q-41.818181818182 -18.181818181818 -41.818181818182 40.909090909091"/><path d="M800 403.63636363636 q41.818181818182 -18.181818181818 41.818181818182 40.909090909091"/><path d="M800 462.72727272727 q-49.090909090909 -18.181818181818 -49.090909090909 40.909090909091"/><path d="M800 462.72727272727 q49.090909090909 -18.181818181818 49.090909090909 40.909090909091"/><path d="M800 521.81818181818 q-56.363636363636 -18.181818181818 -56.363636363636 40.909090909091"/><path d="M800 521.81818181818 q56.363636363636 -18.181818181818 56.363636363636 40.909090909091"/><path d="M800 580.90909090909 q-63.636363636364 -18.181818181818 -63.636363636364 40.909090909091"/><path d="M800 580.90909090909 q63.636363636364 -18.181818181818 63.636363636364 40.909090909091"/><path d="M800 258.18181818182 q-5 -10 0 -18 q5 8 0 18"/></g><text x="800" y="656" text-anchor="middle" font-family="Georgia, 'Times New Roman', serif" font-size="28" letter-spacing="7.84" fill="#8F4A2C">MASA MADRE, TIEMPO Y FUEGO</text><text x="800" y="714" text-anchor="middle" font-family="Georgia, 'Times New Roman', serif" font-style="italic" font-size="52" fill="#2E2016">Nuestro pan recién horneado</text><text x="800" y="974" text-anchor="middle" font-family="system-ui, sans-serif" font-size="22" letter-spacing="1" fill="#9A8E7C">Pacífica Panadería · imagen de ejemplo — reemplazar</text></svg>