<svg xmlns="http://www.w3.org/2000/svg" viewBox="0 0 1000 760" width="1000" height="760" role="img" aria-label="Tulipán 302, Cuernavaca"><defs><linearGradient id="bg" x1="0" y1="0" x2="0" y2="1"><stop offset="0" stop-color="#FBF7F0"/><stop offset="1" stop-color="#EDE3D2"/></linearGradient><linearGradient id="accent" x1="0" y1="0" x2="1" y2="1"><stop offset="0" stop-color="#C6733A"/><stop offset="1" stop-color="#8F4A2C"/></linearGradient></defs><rect width="1000" height="760" fill="url(#bg)"/><rect x="14" y="14" width="972" height="732" fill="none" stroke="#2E2016" stroke-opacity="0.12" stroke-width="2" rx="10"/><path d="M0 258 Q280 122 620 228" fill="none" stroke="#D8A44A" stroke-opacity="0.35" stroke-width="3"/><circle cx="500" cy="334.4" r="129.2" fill="#F6EFE4" stroke="url(#accent)" stroke-width="2.5"/><g fill="none" stroke="#8F4A2C" stroke-width="8.2909090909091" stroke-linecap="round"><path d="M500 493.30909090909 V196.21818181818"/><path d="M500 216.94545454545 q-20.727272727273 -13.818181818182 -20.727272727273 31.090909090909"/><path d="M500 216.94545454545 q20.727272727273 -13.818181818182 20.727272727273 31.090909090909"/><path d="M500 261.85454545455 q-26.254545454545 -13.818181818182 -26.254545454545 31.090909090909"/><path d="M500 261.85454545455 q26.254545454545 -13.818181818182 26.254545454545 31.090909090909"/><path d="M500 306.76363636364 q-31.781818181818 -13.818181818182 -31.781818181818 31.090909090909"/><path d="M500 306.76363636364 q31.781818181818 -13.818181818182 31.781818181818 31.090909090909"/><path d="M500 351.67272727273 q-37.309090909091 -13.818181818182 -37.309090909091 31.090909090909"/><path d="M500 351.67272727273 q37.309090909091 -13.818181818182 37.309090909091 31.090909090909"/><path d="M500 396.58181818182 q-42.836363636364 -13.818181818182 -42.836363636364 31.090909090909"/><path d="M500 396.58181818182 q42.836363636364 -13.818181818182 42.836363636364 31.090909090909"/><path d="M500 441.49090909091 q-48.363636363636 -13.818181818182 -48.363636363636 31.090909090909"/><path d="M500 441.49090909091 q48.363636363636 -13.818181818182 48.363636363636 31.090909090909"/><path d="M500 196.21818181818 q-5 -10 0 -18 q5 8 0 18"/></g><text x="500" y="502.6" text-anchor="middle" font-family="Georgia, 'Times New Roman', serif" font-size="21" letter-spacing="5.88" fill="#8F4A2C">CóMO LLEGAR</text><text x="500" y="548.6" text-anchor="middle" font-family="Georgia, 'Times New Roman', serif" font-style="italic" font-size="40" fill="#2E2016">Tulipán 302, Cuernavaca</text><text x="500" y="734" text-anchor="middle" font-family="system-ui, sans-serif" font-size="17" letter-spacing="1" fill="#9A8E7C">Pacífica Panadería · imagen de ejemplo — reemplazar</text></svg>